<svg width="150" height="60" viewBox="0 0 150 60" fill="none" xmlns="http://www.w3.org/2000/svg">
<rect width="150" height="60" fill="white"/>
<path d="M38.943 10.774C31.518 9.37378 24.9568 10.5333 18.3266 14.1572L21.4006 19.5623C26.5984 16.7213 31.8134 16.6157 37.6343 17.7135L38.943 10.774Z" fill="#2FB2B5"/>
<circle cx="11.3693" cy="16.4206" r="4.36929" fill="#5F76E8"/>
<path fill-rule="evenodd" clip-rule="evenodd" d="M26.289 45.3083C31.4973 44.0478 37.5906 37.6779 32.6721 32.1984L37.814 27.5884C45.1822 36.4777 39.5871 51.2149 22.2109 51.2149L26.289 45.3083Z" fill="#BFAE55"/>
<path d="M11.0446 34.7085L9.75 46.0363C21.5633 53.8039 29.9782 51.7002 34.5093 47.6545C25.2853 45.2272 15.4139 41.9907 11.0446 34.7085Z" fill="#E8D25F"/>
<path d="M36.6914 25.5796C32.0106 19.8527 25.526 15.8826 18.297 14.3177L16.803 21.2197C17.2163 21.3091 17.6265 21.4086 18.0333 21.518C23.2043 22.9078 27.8217 25.8864 31.2236 30.0487L36.6914 25.5796Z" fill="#31CFD2"/>
<path d="M63.8147 33.2946C62.224 33.2946 60.6824 33.0687 59.1898 32.617C57.7169 32.1654 56.5484 31.5664 55.6843 30.8201L57.0099 27.8449C57.8544 28.5126 58.8854 29.0625 60.103 29.4945C61.3403 29.9069 62.5775 30.1131 63.8147 30.1131C65.3465 30.1131 66.4856 29.8676 67.2318 29.3767C67.9978 28.8857 68.3807 28.2376 68.3807 27.4324C68.3807 26.8433 68.1647 26.3621 67.7326 25.989C67.3202 25.5962 66.79 25.2918 66.1419 25.0758C65.4938 24.8598 64.6101 24.6143 63.4907 24.3394C61.9196 23.9662 60.6431 23.5931 59.6611 23.22C58.6989 22.8468 57.8642 22.2675 57.1572 21.4819C56.4699 20.6768 56.1262 19.5966 56.1262 18.2416C56.1262 17.1025 56.4306 16.0715 57.0394 15.1485C57.6678 14.2058 58.6007 13.4596 59.8379 12.9097C61.0948 12.3598 62.6266 12.0849 64.4333 12.0849C65.6902 12.0849 66.9274 12.242 68.145 12.5562C69.3626 12.8704 70.4133 13.3221 71.297 13.9112L70.0893 16.8865C69.1859 16.3563 68.2432 15.9537 67.2613 15.6787C66.2794 15.4038 65.3269 15.2663 64.4039 15.2663C62.8917 15.2663 61.7625 15.5216 61.0162 16.0322C60.2896 16.5428 59.9263 17.2204 59.9263 18.0648C59.9263 18.654 60.1325 19.1351 60.5449 19.5083C60.9769 19.8814 61.517 20.176 62.1651 20.392C62.8132 20.608 63.6969 20.8535 64.8163 21.1284C66.3481 21.4819 67.605 21.8551 68.5869 22.2478C69.5688 22.621 70.4035 23.2003 71.0908 23.9859C71.7978 24.7714 72.1513 25.8319 72.1513 27.1673C72.1513 28.3064 71.8371 29.3374 71.2087 30.2604C70.5999 31.1834 69.667 31.9199 68.4102 32.4698C67.1533 33.0196 65.6215 33.2946 63.8147 33.2946ZM84.4325 32.1457C84.0005 32.4992 83.4702 32.7643 82.8418 32.9411C82.233 33.1178 81.5849 33.2062 80.8976 33.2062C79.1694 33.2062 77.8339 32.7545 76.8913 31.8511C75.9486 30.9478 75.4773 29.632 75.4773 27.9038V13.7934H79.1596V17.3873H83.372V20.3331H79.1596V27.8154C79.1596 28.5813 79.3461 29.1705 79.7193 29.5829C80.112 29.9756 80.6521 30.172 81.3394 30.172C82.1643 30.172 82.8516 29.956 83.4015 29.524L84.4325 32.1457ZM102.335 17.2695V33H98.8299V30.9674C98.2211 31.7137 97.465 32.2734 96.5616 32.6465C95.6779 33.0196 94.6959 33.2062 93.6158 33.2062C92.084 33.2062 90.7093 32.8723 89.4917 32.2046C88.2937 31.5369 87.3511 30.5943 86.6637 29.3767C85.996 28.1591 85.6622 26.7451 85.6622 25.1347C85.6622 23.5244 85.996 22.1202 86.6637 20.9222C87.3511 19.7046 88.2937 18.762 89.4917 18.0943C90.7093 17.4266 92.084 17.0927 93.6158 17.0927C94.637 17.0927 95.5699 17.2695 96.4143 17.6229C97.2784 17.9764 98.0247 18.4969 98.6531 19.1842V17.2695H102.335ZM94.0282 30.0542C95.3833 30.0542 96.5027 29.6025 97.3864 28.6991C98.2702 27.7958 98.712 26.6076 98.712 25.1347C98.712 23.6618 98.2702 22.4737 97.3864 21.5703C96.5027 20.6669 95.3833 20.2152 94.0282 20.2152C92.6732 20.2152 91.5538 20.6669 90.67 21.5703C89.8059 22.4737 89.3739 23.6618 89.3739 25.1347C89.3739 26.6076 89.8059 27.7958 90.67 28.6991C91.5538 29.6025 92.6732 30.0542 94.0282 30.0542ZM121.882 17.2695L115.136 33H111.336L104.59 17.2695H108.42L113.31 28.9348L118.347 17.2695H121.882ZM139.413 17.2695V30.6139C139.413 36.152 136.693 38.921 131.253 38.921C129.82 38.921 128.445 38.7247 127.129 38.3319C125.833 37.9588 124.763 37.4089 123.918 36.6822L125.568 33.9132C126.236 34.4827 127.051 34.9344 128.013 35.2683C128.975 35.6021 129.987 35.769 131.047 35.769C132.658 35.769 133.836 35.3763 134.582 34.5907C135.348 33.8248 135.731 32.6367 135.731 31.0263V30.2899C135.142 30.9379 134.425 31.4387 133.581 31.7922C132.736 32.1261 131.823 32.293 130.841 32.293C128.74 32.293 127.08 31.7137 125.863 30.555C124.665 29.3963 124.066 27.6583 124.066 25.3409V17.2695H127.748V24.8696C127.748 26.2639 128.062 27.3146 128.691 28.0216C129.339 28.709 130.252 29.0526 131.43 29.0526C132.746 29.0526 133.787 28.65 134.553 27.8449C135.338 27.0397 135.731 25.8712 135.731 24.3394V17.2695H139.413Z" fill="#31CFD2"/>
<path d="M57.744 51.12C57.048 51.12 56.464 51.016 55.992 50.808C55.52 50.592 55.156 50.316 54.9 49.98C54.652 49.636 54.52 49.272 54.504 48.888C54.504 48.824 54.528 48.768 54.576 48.72C54.632 48.664 54.696 48.636 54.768 48.636H55.38C55.476 48.636 55.548 48.66 55.596 48.708C55.644 48.756 55.676 48.812 55.692 48.876C55.732 49.068 55.828 49.26 55.98 49.452C56.14 49.636 56.36 49.792 56.64 49.92C56.928 50.04 57.296 50.1 57.744 50.1C58.432 50.1 58.936 49.98 59.256 49.74C59.584 49.492 59.748 49.164 59.748 48.756C59.748 48.476 59.66 48.252 59.484 48.084C59.316 47.908 59.056 47.752 58.704 47.616C58.352 47.48 57.896 47.332 57.336 47.172C56.752 47.004 56.268 46.82 55.884 46.62C55.5 46.42 55.212 46.172 55.02 45.876C54.836 45.58 54.744 45.204 54.744 44.748C54.744 44.316 54.86 43.932 55.092 43.596C55.324 43.252 55.656 42.98 56.088 42.78C56.528 42.58 57.06 42.48 57.684 42.48C58.18 42.48 58.612 42.548 58.98 42.684C59.356 42.812 59.668 42.988 59.916 43.212C60.164 43.428 60.352 43.664 60.48 43.92C60.608 44.168 60.676 44.412 60.684 44.652C60.684 44.708 60.664 44.764 60.624 44.82C60.584 44.868 60.52 44.892 60.432 44.892H59.796C59.74 44.892 59.68 44.876 59.616 44.844C59.56 44.812 59.516 44.752 59.484 44.664C59.436 44.336 59.252 44.06 58.932 43.836C58.612 43.612 58.196 43.5 57.684 43.5C57.164 43.5 56.74 43.6 56.412 43.8C56.092 44 55.932 44.312 55.932 44.736C55.932 45.008 56.008 45.236 56.16 45.42C56.312 45.596 56.552 45.752 56.88 45.888C57.208 46.024 57.636 46.168 58.164 46.32C58.804 46.496 59.328 46.684 59.736 46.884C60.144 47.076 60.444 47.32 60.636 47.616C60.836 47.904 60.936 48.276 60.936 48.732C60.936 49.236 60.804 49.668 60.54 50.028C60.276 50.38 59.904 50.652 59.424 50.844C58.952 51.028 58.392 51.12 57.744 51.12ZM62.7848 51C62.6968 51 62.6288 50.976 62.5808 50.928C62.5328 50.872 62.5088 50.804 62.5088 50.724V42.876C62.5088 42.796 62.5328 42.732 62.5808 42.684C62.6288 42.628 62.6968 42.6 62.7848 42.6H63.4208C63.5008 42.6 63.5648 42.628 63.6128 42.684C63.6608 42.732 63.6848 42.796 63.6848 42.876V49.956H67.6808C67.7688 49.956 67.8368 49.984 67.8848 50.04C67.9328 50.088 67.9568 50.156 67.9568 50.244V50.724C67.9568 50.804 67.9328 50.872 67.8848 50.928C67.8368 50.976 67.7688 51 67.6808 51H62.7848ZM69.5466 51C69.4586 51 69.3906 50.976 69.3426 50.928C69.2946 50.872 69.2706 50.804 69.2706 50.724V42.888C69.2706 42.8 69.2946 42.732 69.3426 42.684C69.3906 42.628 69.4586 42.6 69.5466 42.6H72.5946C73.1866 42.6 73.6986 42.696 74.1306 42.888C74.5706 43.08 74.9106 43.368 75.1506 43.752C75.3906 44.128 75.5106 44.6 75.5106 45.168C75.5106 45.736 75.3906 46.208 75.1506 46.584C74.9106 46.96 74.5706 47.244 74.1306 47.436C73.6986 47.628 73.1866 47.724 72.5946 47.724H70.4706V50.724C70.4706 50.804 70.4426 50.872 70.3866 50.928C70.3386 50.976 70.2706 51 70.1826 51H69.5466ZM70.4586 46.716H72.5346C73.1266 46.716 73.5706 46.584 73.8666 46.32C74.1626 46.056 74.3106 45.672 74.3106 45.168C74.3106 44.672 74.1666 44.288 73.8786 44.016C73.5906 43.744 73.1426 43.608 72.5346 43.608H70.4586V46.716ZM82.3417 51.12C81.6457 51.12 81.0617 51.016 80.5897 50.808C80.1177 50.592 79.7537 50.316 79.4977 49.98C79.2497 49.636 79.1177 49.272 79.1017 48.888C79.1017 48.824 79.1257 48.768 79.1737 48.72C79.2297 48.664 79.2937 48.636 79.3657 48.636H79.9777C80.0737 48.636 80.1457 48.66 80.1937 48.708C80.2417 48.756 80.2737 48.812 80.2897 48.876C80.3297 49.068 80.4257 49.26 80.5777 49.452C80.7377 49.636 80.9577 49.792 81.2377 49.92C81.5257 50.04 81.8937 50.1 82.3417 50.1C83.0297 50.1 83.5337 49.98 83.8537 49.74C84.1817 49.492 84.3457 49.164 84.3457 48.756C84.3457 48.476 84.2577 48.252 84.0817 48.084C83.9137 47.908 83.6537 47.752 83.3017 47.616C82.9497 47.48 82.4937 47.332 81.9337 47.172C81.3497 47.004 80.8657 46.82 80.4817 46.62C80.0977 46.42 79.8097 46.172 79.6177 45.876C79.4337 45.58 79.3417 45.204 79.3417 44.748C79.3417 44.316 79.4577 43.932 79.6897 43.596C79.9217 43.252 80.2537 42.98 80.6857 42.78C81.1257 42.58 81.6577 42.48 82.2817 42.48C82.7777 42.48 83.2097 42.548 83.5777 42.684C83.9537 42.812 84.2657 42.988 84.5137 43.212C84.7617 43.428 84.9497 43.664 85.0777 43.92C85.2057 44.168 85.2737 44.412 85.2817 44.652C85.2817 44.708 85.2617 44.764 85.2217 44.82C85.1817 44.868 85.1177 44.892 85.0297 44.892H84.3937C84.3377 44.892 84.2777 44.876 84.2137 44.844C84.1577 44.812 84.1137 44.752 84.0817 44.664C84.0337 44.336 83.8497 44.06 83.5297 43.836C83.2097 43.612 82.7937 43.5 82.2817 43.5C81.7617 43.5 81.3377 43.6 81.0097 43.8C80.6897 44 80.5297 44.312 80.5297 44.736C80.5297 45.008 80.6057 45.236 80.7577 45.42C80.9097 45.596 81.1497 45.752 81.4777 45.888C81.8057 46.024 82.2337 46.168 82.7617 46.32C83.4017 46.496 83.9257 46.684 84.3337 46.884C84.7417 47.076 85.0417 47.32 85.2337 47.616C85.4337 47.904 85.5337 48.276 85.5337 48.732C85.5337 49.236 85.4017 49.668 85.1377 50.028C84.8737 50.38 84.5017 50.652 84.0217 50.844C83.5497 51.028 82.9897 51.12 82.3417 51.12ZM89.3865 51C88.9385 51 88.5745 50.916 88.2945 50.748C88.0145 50.572 87.8105 50.328 87.6825 50.016C87.5545 49.696 87.4905 49.32 87.4905 48.888V45.72H86.5545C86.4745 45.72 86.4065 45.696 86.3505 45.648C86.3025 45.592 86.2785 45.524 86.2785 45.444V45.036C86.2785 44.956 86.3025 44.892 86.3505 44.844C86.4065 44.788 86.4745 44.76 86.5545 44.76H87.4905V42.756C87.4905 42.676 87.5145 42.612 87.5625 42.564C87.6185 42.508 87.6865 42.48 87.7665 42.48H88.3305C88.4105 42.48 88.4745 42.508 88.5225 42.564C88.5785 42.612 88.6065 42.676 88.6065 42.756V44.76H90.0945C90.1745 44.76 90.2385 44.788 90.2865 44.844C90.3425 44.892 90.3705 44.956 90.3705 45.036V45.444C90.3705 45.524 90.3425 45.592 90.2865 45.648C90.2385 45.696 90.1745 45.72 90.0945 45.72H88.6065V48.804C88.6065 49.18 88.6705 49.476 88.7985 49.692C88.9265 49.908 89.1545 50.016 89.4825 50.016H90.2145C90.2945 50.016 90.3585 50.044 90.4065 50.1C90.4625 50.148 90.4905 50.212 90.4905 50.292V50.724C90.4905 50.804 90.4625 50.872 90.4065 50.928C90.3585 50.976 90.2945 51 90.2145 51H89.3865ZM93.378 51.12C92.978 51.12 92.614 51.04 92.286 50.88C91.958 50.72 91.694 50.504 91.494 50.232C91.294 49.96 91.194 49.652 91.194 49.308C91.194 48.756 91.418 48.316 91.866 47.988C92.314 47.66 92.898 47.444 93.618 47.34L95.406 47.088V46.74C95.406 46.356 95.294 46.056 95.07 45.84C94.854 45.624 94.498 45.516 94.002 45.516C93.642 45.516 93.35 45.588 93.126 45.732C92.91 45.876 92.758 46.06 92.67 46.284C92.622 46.404 92.538 46.464 92.418 46.464H91.878C91.79 46.464 91.722 46.44 91.674 46.392C91.634 46.336 91.614 46.272 91.614 46.2C91.614 46.08 91.658 45.932 91.746 45.756C91.842 45.58 91.986 45.408 92.178 45.24C92.37 45.072 92.614 44.932 92.91 44.82C93.214 44.7 93.582 44.64 94.014 44.64C94.494 44.64 94.898 44.704 95.226 44.832C95.554 44.952 95.81 45.116 95.994 45.324C96.186 45.532 96.322 45.768 96.402 46.032C96.49 46.296 96.534 46.564 96.534 46.836V50.724C96.534 50.804 96.506 50.872 96.45 50.928C96.402 50.976 96.338 51 96.258 51H95.706C95.618 51 95.55 50.976 95.502 50.928C95.454 50.872 95.43 50.804 95.43 50.724V50.208C95.326 50.352 95.186 50.496 95.01 50.64C94.834 50.776 94.614 50.892 94.35 50.988C94.086 51.076 93.762 51.12 93.378 51.12ZM93.63 50.22C93.958 50.22 94.258 50.152 94.53 50.016C94.802 49.872 95.014 49.652 95.166 49.356C95.326 49.06 95.406 48.688 95.406 48.24V47.904L94.014 48.108C93.446 48.188 93.018 48.324 92.73 48.516C92.442 48.7 92.298 48.936 92.298 49.224C92.298 49.448 92.362 49.636 92.49 49.788C92.626 49.932 92.794 50.04 92.994 50.112C93.202 50.184 93.414 50.22 93.63 50.22ZM99.1005 51C99.0205 51 98.9525 50.976 98.8965 50.928C98.8485 50.872 98.8245 50.804 98.8245 50.724V45.72H97.8045C97.7245 45.72 97.6565 45.696 97.6005 45.648C97.5525 45.592 97.5285 45.524 97.5285 45.444V45.036C97.5285 44.956 97.5525 44.892 97.6005 44.844C97.6565 44.788 97.7245 44.76 97.8045 44.76H98.8245V44.16C98.8245 43.752 98.8925 43.396 99.0285 43.092C99.1645 42.78 99.3805 42.54 99.6765 42.372C99.9805 42.204 100.385 42.12 100.889 42.12H101.609C101.689 42.12 101.753 42.148 101.801 42.204C101.849 42.252 101.873 42.316 101.873 42.396V42.804C101.873 42.884 101.849 42.952 101.801 43.008C101.753 43.056 101.689 43.08 101.609 43.08H100.913C100.537 43.08 100.281 43.18 100.145 43.38C100.009 43.572 99.9405 43.852 99.9405 44.22V44.76H102.509V44.16C102.509 43.752 102.573 43.396 102.701 43.092C102.837 42.78 103.053 42.54 103.349 42.372C103.653 42.204 104.057 42.12 104.561 42.12H105.281C105.361 42.12 105.425 42.148 105.473 42.204C105.529 42.252 105.557 42.316 105.557 42.396V42.804C105.557 42.884 105.529 42.952 105.473 43.008C105.425 43.056 105.361 43.08 105.281 43.08H104.585C104.209 43.08 103.953 43.18 103.817 43.38C103.681 43.572 103.613 43.852 103.613 44.22V44.76H105.161C105.241 44.76 105.305 44.788 105.353 44.844C105.409 44.892 105.437 44.956 105.437 45.036V45.444C105.437 45.524 105.409 45.592 105.353 45.648C105.305 45.696 105.241 45.72 105.161 45.72H103.613V50.724C103.613 50.804 103.589 50.872 103.541 50.928C103.493 50.976 103.425 51 103.337 51H102.785C102.705 51 102.637 50.976 102.581 50.928C102.533 50.872 102.509 50.804 102.509 50.724V45.72H99.9405V50.724C99.9405 50.804 99.9125 50.872 99.8565 50.928C99.8085 50.976 99.7445 51 99.6645 51H99.1005ZM112.025 51.12C111.329 51.12 110.745 51.016 110.273 50.808C109.801 50.592 109.437 50.316 109.181 49.98C108.933 49.636 108.801 49.272 108.785 48.888C108.785 48.824 108.809 48.768 108.857 48.72C108.913 48.664 108.977 48.636 109.049 48.636H109.661C109.757 48.636 109.829 48.66 109.877 48.708C109.925 48.756 109.957 48.812 109.973 48.876C110.013 49.068 110.109 49.26 110.261 49.452C110.421 49.636 110.641 49.792 110.921 49.92C111.209 50.04 111.577 50.1 112.025 50.1C112.713 50.1 113.217 49.98 113.537 49.74C113.865 49.492 114.029 49.164 114.029 48.756C114.029 48.476 113.941 48.252 113.765 48.084C113.597 47.908 113.337 47.752 112.985 47.616C112.633 47.48 112.177 47.332 111.617 47.172C111.033 47.004 110.549 46.82 110.165 46.62C109.781 46.42 109.493 46.172 109.301 45.876C109.117 45.58 109.025 45.204 109.025 44.748C109.025 44.316 109.141 43.932 109.373 43.596C109.605 43.252 109.937 42.98 110.369 42.78C110.809 42.58 111.341 42.48 111.965 42.48C112.461 42.48 112.893 42.548 113.261 42.684C113.637 42.812 113.949 42.988 114.197 43.212C114.445 43.428 114.633 43.664 114.761 43.92C114.889 44.168 114.957 44.412 114.965 44.652C114.965 44.708 114.945 44.764 114.905 44.82C114.865 44.868 114.801 44.892 114.713 44.892H114.077C114.021 44.892 113.961 44.876 113.897 44.844C113.841 44.812 113.797 44.752 113.765 44.664C113.717 44.336 113.533 44.06 113.213 43.836C112.893 43.612 112.477 43.5 111.965 43.5C111.445 43.5 111.021 43.6 110.693 43.8C110.373 44 110.213 44.312 110.213 44.736C110.213 45.008 110.289 45.236 110.441 45.42C110.593 45.596 110.833 45.752 111.161 45.888C111.489 46.024 111.917 46.168 112.445 46.32C113.085 46.496 113.609 46.684 114.017 46.884C114.425 47.076 114.725 47.32 114.917 47.616C115.117 47.904 115.217 48.276 115.217 48.732C115.217 49.236 115.085 49.668 114.821 50.028C114.557 50.38 114.185 50.652 113.705 50.844C113.233 51.028 112.673 51.12 112.025 51.12ZM118.374 51.12C117.974 51.12 117.61 51.04 117.282 50.88C116.954 50.72 116.69 50.504 116.49 50.232C116.29 49.96 116.19 49.652 116.19 49.308C116.19 48.756 116.414 48.316 116.862 47.988C117.31 47.66 117.894 47.444 118.614 47.34L120.402 47.088V46.74C120.402 46.356 120.29 46.056 120.066 45.84C119.85 45.624 119.494 45.516 118.998 45.516C118.638 45.516 118.346 45.588 118.122 45.732C117.906 45.876 117.754 46.06 117.666 46.284C117.618 46.404 117.534 46.464 117.414 46.464H116.874C116.786 46.464 116.718 46.44 116.67 46.392C116.63 46.336 116.61 46.272 116.61 46.2C116.61 46.08 116.654 45.932 116.742 45.756C116.838 45.58 116.982 45.408 117.174 45.24C117.366 45.072 117.61 44.932 117.906 44.82C118.21 44.7 118.578 44.64 119.01 44.64C119.49 44.64 119.894 44.704 120.222 44.832C120.55 44.952 120.806 45.116 120.99 45.324C121.182 45.532 121.318 45.768 121.398 46.032C121.486 46.296 121.53 46.564 121.53 46.836V50.724C121.53 50.804 121.502 50.872 121.446 50.928C121.398 50.976 121.334 51 121.254 51H120.702C120.614 51 120.546 50.976 120.498 50.928C120.45 50.872 120.426 50.804 120.426 50.724V50.208C120.322 50.352 120.182 50.496 120.006 50.64C119.83 50.776 119.61 50.892 119.346 50.988C119.082 51.076 118.758 51.12 118.374 51.12ZM118.626 50.22C118.954 50.22 119.254 50.152 119.526 50.016C119.798 49.872 120.01 49.652 120.162 49.356C120.322 49.06 120.402 48.688 120.402 48.24V47.904L119.01 48.108C118.442 48.188 118.014 48.324 117.726 48.516C117.438 48.7 117.294 48.936 117.294 49.224C117.294 49.448 117.358 49.636 117.486 49.788C117.622 49.932 117.79 50.04 117.99 50.112C118.198 50.184 118.41 50.22 118.626 50.22ZM125.31 51C125.19 51 125.094 50.972 125.022 50.916C124.958 50.86 124.906 50.788 124.866 50.7L122.646 45.132C122.63 45.092 122.622 45.052 122.622 45.012C122.622 44.94 122.646 44.88 122.694 44.832C122.742 44.784 122.802 44.76 122.874 44.76H123.45C123.538 44.76 123.606 44.784 123.654 44.832C123.702 44.88 123.73 44.924 123.738 44.964L125.574 49.692L127.398 44.964C127.414 44.924 127.442 44.88 127.482 44.832C127.53 44.784 127.598 44.76 127.686 44.76H128.274C128.338 44.76 128.394 44.784 128.442 44.832C128.498 44.88 128.526 44.94 128.526 45.012C128.526 45.052 128.518 45.092 128.502 45.132L126.27 50.7C126.238 50.788 126.186 50.86 126.114 50.916C126.05 50.972 125.954 51 125.826 51H125.31ZM131.955 51C131.835 51 131.739 50.972 131.667 50.916C131.603 50.86 131.551 50.788 131.511 50.7L129.291 45.132C129.275 45.092 129.267 45.052 129.267 45.012C129.267 44.94 129.291 44.88 129.339 44.832C129.387 44.784 129.447 44.76 129.519 44.76H130.095C130.183 44.76 130.251 44.784 130.299 44.832C130.347 44.88 130.375 44.924 130.383 44.964L132.219 49.692L134.043 44.964C134.059 44.924 134.087 44.88 134.127 44.832C134.175 44.784 134.243 44.76 134.331 44.76H134.919C134.983 44.76 135.039 44.784 135.087 44.832C135.143 44.88 135.171 44.94 135.171 45.012C135.171 45.052 135.163 45.092 135.147 45.132L132.915 50.7C132.883 50.788 132.831 50.86 132.759 50.916C132.695 50.972 132.599 51 132.471 51H131.955ZM137.519 53.28C137.455 53.28 137.399 53.256 137.351 53.208C137.303 53.16 137.279 53.104 137.279 53.04C137.279 53.008 137.283 52.976 137.291 52.944C137.299 52.912 137.315 52.872 137.339 52.824L138.263 50.628L135.971 45.216C135.931 45.12 135.911 45.052 135.911 45.012C135.911 44.94 135.935 44.88 135.983 44.832C136.031 44.784 136.091 44.76 136.163 44.76H136.751C136.831 44.76 136.895 44.78 136.943 44.82C136.991 44.86 137.023 44.908 137.039 44.964L138.863 49.332L140.735 44.964C140.759 44.908 140.791 44.86 140.831 44.82C140.879 44.78 140.947 44.76 141.035 44.76H141.599C141.671 44.76 141.731 44.784 141.779 44.832C141.827 44.88 141.851 44.936 141.851 45C141.851 45.04 141.831 45.112 141.791 45.216L138.383 53.076C138.359 53.132 138.323 53.18 138.275 53.22C138.235 53.26 138.171 53.28 138.083 53.28H137.519Z" fill="#9EABC0"/>
</svg>
